<svg width="28" height="29" viewBox="0 0 28 29" fill="none" xmlns="http://www.w3.org/2000/svg">
    <path fill-rule="evenodd" clip-rule="evenodd"
          d="M20.361 26.04C21.381 26.11 22.2279 25.8299 22.9209 25.1399L25.8499 22.21C25.8679 22.19 25.8739 22.1799 25.8749 22.1699L21.6879 17.98C21.6779 17.98 21.6609 17.99 21.6429 18.01L18.7139 20.9299C18.5259 21.1199 18.2699 21.23 18.0049 21.23L18.0069 20.23C18.0049 21.23 18.0019 21.23 18.0019 21.23H17.999H17.9929H17.9799H17.9549C17.9369 21.23 17.9179 21.22 17.8979 21.22C17.8579 21.22 17.8129 21.2099 17.7629 21.1999C17.6639 21.1899 17.5449 21.1601 17.4039 21.1101C17.1219 21.0201 16.7459 20.8501 16.2529 20.5601C15.2699 19.9701 13.7789 18.86 11.5959 16.71C9.40894 14.57 8.2859 13.0701 7.7069 12.0601C7.4159 11.5601 7.25496 11.1701 7.16796 10.8701C7.12396 10.7201 7.09895 10.6 7.08495 10.49C7.07795 10.44 7.07492 10.4001 7.07293 10.3501C7.07193 10.3301 7.07091 10.31 7.07091 10.3C7.07091 10.29 7.07195 10.28 7.07195 10.27V10.26V10.25C7.07195 10.25 7.07291 10.24 8.07091 10.29L7.07293 10.24C7.08493 9.99998 7.18894 9.76008 7.36394 9.59008L10.2939 6.65991C10.3119 6.63991 10.3169 6.6201 10.3179 6.6101L6.13091 2.41992C6.12191 2.42992 6.1049 2.42995 6.0869 2.44995L3.15691 5.37988C2.46191 6.06988 2.1889 6.91993 2.2459 7.92993C2.3039 8.97993 2.71892 10.2 3.41692 11.52C4.81292 14.15 7.18794 16.89 9.27794 18.99C11.3559 21.06 14.1099 23.4501 16.7549 24.8601C18.0789 25.5601 19.306 25.98 20.361 26.04ZM9.19194 10.5901L11.7079 8.07006C12.4759 7.30006 12.5549 6.01996 11.7429 5.20996L7.53594 0.999995C6.72294 0.189995 5.4399 0.270024 4.6729 1.03002L1.74291 3.95996C0.583908 5.11996 0.165951 6.55003 0.248951 8.04003C0.328951 9.50003 0.882952 11.0099 1.64995 12.4499C3.18495 15.3499 5.72394 18.2599 7.86394 20.3999C9.99094 22.5299 12.9109 25.0701 15.8159 26.6201C17.2669 27.3901 18.7849 27.95 20.2429 28.04C21.7369 28.13 23.174 27.7201 24.3349 26.5601L27.2639 23.6299C28.0319 22.8599 28.1109 21.58 27.2989 20.76L23.0919 16.5601C22.2789 15.7401 20.9969 15.8201 20.2289 16.5901L17.7329 19.0901C17.6109 19.0301 17.4589 18.9501 17.2739 18.8401C16.4769 18.3601 15.1129 17.37 12.9979 15.29C10.8879 13.21 9.89795 11.8601 9.43895 11.0601C9.32595 10.8701 9.24694 10.7101 9.19194 10.5901Z"
          fill="white"/>
</svg>
